<?xml version="1.0" encoding="iso-8859-1"?>
<!-- Generator: Adobe Illustrator 16.0.0, SVG Export Plug-In . SVG Version: 6.00 Build 0)  -->
<!DOCTYPE svg PUBLIC "-//W3C//DTD SVG 1.1//EN" "http://www.w3.org/Graphics/SVG/1.1/DTD/svg11.dtd">
<svg version="1.1" id="Layer_1" xmlns="http://www.w3.org/2000/svg" xmlns:xlink="http://www.w3.org/1999/xlink" x="0px" y="0px"
	 width="32px" height="29.665px" viewBox="0 0 32 29.665" style="enable-background:new 0 0 32 29.665;" xml:space="preserve">
<g>
	<polygon points="22.968,0.12 6.122,0 0,9.419 0,10.496 14.337,13.581 21.798,1.203 29.94,10.861 32,10.842 	"/>
	<path d="M14.852,14.462L0.775,11.359L0.78,23.534l8.231,3.522v-7.795l4.104,1.219v8.333l1.96,0.839v0.013l14.033-6.003V11.874
		V11.62v-0.596l-7.247-8.582L14.852,14.462z M6.397,22.408l-3.488-1.213v-2.924l3.488,1.075V22.408z M6.582,17.631l-3.504-1V13.7
		l3.504,0.861V17.631z M13.116,19.494l-4.104-1.171v-3.165l4.104,1.008V19.494z M21.94,23.195l-4.218,1.476v-3.418l4.218-1.302
		V23.195z M23.58,14.604l3.659-0.9v3.027l-3.659,1.051V14.604z M23.549,19.455l3.662-1.131v3.028l-3.662,1.281V19.455z
		 M21.974,18.242l-4.215,1.211v-3.416l4.215-1.038V18.242z"/>
</g>
<g>
</g>
<g>
</g>
<g>
</g>
<g>
</g>
<g>
</g>
<g>
</g>
<g>
</g>
<g>
</g>
<g>
</g>
<g>
</g>
<g>
</g>
<g>
</g>
<g>
</g>
<g>
</g>
<g>
</g>
</svg>
