<?xml version="1.0" encoding="iso-8859-1"?>
<!-- Generator: Adobe Illustrator 17.1.0, SVG Export Plug-In . SVG Version: 6.00 Build 0)  -->
<!DOCTYPE svg PUBLIC "-//W3C//DTD SVG 1.1//EN" "http://www.w3.org/Graphics/SVG/1.1/DTD/svg11.dtd">
<svg version="1.1" id="Layer_1" xmlns="http://www.w3.org/2000/svg" xmlns:xlink="http://www.w3.org/1999/xlink" x="0px" y="0px"
	 viewBox="0 0 64 64" style="enable-background:new 0 0 64 64;" xml:space="preserve">
<g>
	<path d="M40.754,12.647C40.538,12.301,39.866,12,39.458,12h-11.5c-0.408,0-0.422,0.307-0.22,0.661l20.33,35.304
		c0.202,0.354,0.682,0.377,1.071,0.257l11.089-3.505c0.39-0.12,0.531-0.582,0.315-0.928L40.754,12.647z"/>
	<path d="M13.19,47.972L23,27.032v20.259C23,49.104,24.922,49,25.33,49h19.118c0.408,0,0.574-0.657,0.372-1.011L25.068,12.978
		c-0.202-0.354-0.529-0.354-0.731,0l-4.946,8.685c-0.202,0.354-0.654,0.802-1.011,1c-5.003,2.776-11.75,6.483-14.74,7.795
		c-0.448,0.197-0.423,0.762-0.074,1.104c0.665,0.65,2.078,2.137,3.383,3.928c0.759,1.042,1.423,2.204,1.967,3.357
		c0.174,0.369,0.141,0.959-0.061,1.314l-4.248,7.828C4.407,48.343,4.574,49,4.982,49h7.135C12.525,49,13.005,48.336,13.19,47.972z
		 M7.485,31.839c-0.183-0.162-0.162-0.378,0.055-0.492c2.105-1.102,12.064-6.329,14.833-8.022c0.209-0.128,0.285-0.06,0.174,0.158
		l-9.44,18.55c-0.111,0.218-0.238,0.2-0.292-0.039C12.46,40.426,11.019,34.965,7.485,31.839z"/>
</g>
</svg>
